# Blender 4.0.2
# www.blender.org
mtllib Battery.mtl
o Cylinder
v 0.000000 -3.600000 -2.000000
v 0.000000 3.600000 -2.000000
v 0.765367 -3.600000 -1.847759
v 0.765367 3.600000 -1.847759
v 1.414214 -3.600000 -1.414214
v 1.414214 3.600000 -1.414214
v 1.847759 -3.600000 -0.765367
v 1.847759 3.600000 -0.765367
v 2.000000 -3.600000 0.000000
v 2.000000 3.600000 0.000000
v 1.847759 -3.600000 0.765367
v 1.847759 3.600000 0.765367
v 1.414214 -3.600000 1.414214
v 1.414214 3.600000 1.414214
v 0.765367 -3.600000 1.847759
v 0.765367 3.600000 1.847759
v 0.000000 -3.600000 2.000000
v 0.000000 3.600000 2.000000
v -0.765367 -3.600000 1.847759
v -0.765367 3.600000 1.847759
v -1.414214 -3.600000 1.414214
v -1.414214 3.600000 1.414214
v -1.847759 -3.600000 0.765367
v -1.847759 3.600000 0.765367
v -2.000000 -3.600000 0.000000
v -2.000000 3.600000 0.000000
v -1.847759 -3.600000 -0.765367
v -1.847759 3.600000 -0.765367
v -1.414214 -3.600000 -1.414214
v -1.414214 3.600000 -1.414214
v -0.765367 -3.600000 -1.847759
v -0.765367 3.600000 -1.847759
v 0.529697 3.600000 -1.278802
v -0.000000 3.600000 -1.384165
v 0.978753 3.600000 -0.978753
v 1.278802 3.600000 -0.529697
v 1.384165 3.600000 0.000000
v 1.278802 3.600000 0.529697
v 0.978753 3.600000 0.978753
v 0.529697 3.600000 1.278802
v -0.000000 3.600000 1.384165
v -0.529697 3.600000 1.278802
v -0.978753 3.600000 0.978753
v -1.278802 3.600000 0.529697
v -1.384165 3.600000 0.000000
v -1.278802 3.600000 -0.529697
v -0.978753 3.600000 -0.978753
v -0.529697 3.600000 -1.278802
v 0.228808 3.600000 -0.552392
v 0.000000 3.600000 -0.597904
v 0.422782 3.600000 -0.422782
v 0.552392 3.600000 -0.228808
v 0.597904 3.600000 0.000000
v 0.552392 3.600000 0.228808
v 0.422782 3.600000 0.422782
v 0.228808 3.600000 0.552392
v 0.000000 3.600000 0.597904
v -0.228808 3.600000 0.552392
v -0.422782 3.600000 0.422782
v -0.552392 3.600000 0.228808
v -0.597904 3.600000 0.000000
v -0.552392 3.600000 -0.228808
v -0.422782 3.600000 -0.422782
v -0.228808 3.600000 -0.552392
v 0.228808 4.300000 -0.552392
v -0.000000 4.300000 -0.597904
v 0.422782 4.300000 -0.422782
v 0.552391 4.300000 -0.228808
v 0.597904 4.300000 0.000000
v 0.552391 4.300000 0.228808
v 0.422782 4.300000 0.422782
v 0.228808 4.300000 0.552392
v -0.000000 4.300000 0.597904
v -0.228808 4.300000 0.552392
v -0.422782 4.300000 0.422782
v -0.552392 4.300000 0.228808
v -0.597904 4.300000 0.000000
v -0.552392 4.300000 -0.228808
v -0.422782 4.300000 -0.422782
v -0.228808 4.300000 -0.552392
v -0.000000 -3.600000 -1.542771
v 0.590393 -3.600000 -1.425334
v 1.090904 -3.600000 -1.090904
v 1.425334 -3.600000 -0.590393
v 1.542771 -3.600000 0.000000
v 1.425334 -3.600000 0.590393
v 1.090904 -3.600000 1.090904
v 0.590393 -3.600000 1.425334
v -0.000000 -3.600000 1.542771
v -0.590393 -3.600000 1.425334
v -1.090904 -3.600000 1.090904
v -1.425334 -3.600000 0.590393
v -1.542771 -3.600000 0.000000
v -1.425334 -3.600000 -0.590393
v -1.090904 -3.600000 -1.090904
v -0.590393 -3.600000 -1.425334
v -0.000000 -3.700000 -1.542771
v 0.590393 -3.700000 -1.425334
v 1.090904 -3.700000 -1.090904
v 1.425334 -3.700000 -0.590393
v 1.542771 -3.700000 0.000000
v 1.425334 -3.700000 0.590393
v 1.090904 -3.700000 1.090904
v 0.590393 -3.700000 1.425334
v -0.000000 -3.700000 1.542771
v -0.590393 -3.700000 1.425334
v -1.090904 -3.700000 1.090904
v -1.425334 -3.700000 0.590393
v -1.542771 -3.700000 0.000000
v -1.425334 -3.700000 -0.590393
v -1.090904 -3.700000 -1.090904
v -0.590393 -3.700000 -1.425334
v 1.305539 3.600000 0.000000
v 1.206161 3.600000 0.499608
v -1.305539 3.600000 0.000000
v -1.206161 3.600000 -0.499608
v 0.923156 3.600000 0.923156
v -0.923156 3.600000 -0.923156
v 0.499608 3.600000 1.206161
v -0.499608 3.600000 -1.206161
v -0.000000 3.600000 1.305539
v -0.000000 3.600000 -1.305539
v 0.499608 3.600000 -1.206161
v -0.499608 3.600000 1.206161
v 0.923156 3.600000 -0.923156
v -0.923156 3.600000 0.923156
v 1.206161 3.600000 -0.499608
v -1.206161 3.600000 0.499608
v 1.292181 3.567688 0.535239
v -1.292181 3.567688 -0.535239
v 0.988992 3.567688 0.988992
v -0.988992 3.567688 -0.988992
v 0.535239 3.567688 1.292181
v -0.535239 3.567688 -1.292181
v -0.000000 3.567688 1.398646
v 0.535239 3.567688 -1.292181
v -0.535239 3.567688 1.292181
v 0.988992 3.567688 -0.988992
v -0.988992 3.567688 0.988992
v 1.292181 3.567688 -0.535239
v -1.292181 3.567688 0.535239
v 1.398646 3.567688 0.000000
v -1.398646 3.567688 0.000000
v -0.000000 3.567688 -1.398646
vn -0.0000 -0.0000 -1.0000
vn 0.3827 -0.0000 -0.9239
vn 0.7071 -0.0000 -0.7071
vn 0.9239 -0.0000 -0.3827
vn 1.0000 -0.0000 -0.0000
vn 0.9239 -0.0000 0.3827
vn 0.7071 -0.0000 0.7071
vn 0.3827 -0.0000 0.9239
vn -0.0000 -0.0000 1.0000
vn -0.3827 -0.0000 0.9239
vn -0.7071 -0.0000 0.7071
vn -0.9239 -0.0000 0.3827
vn -1.0000 -0.0000 -0.0000
vn -0.9239 -0.0000 -0.3827
vn -0.7071 -0.0000 -0.7071
vn -0.0000 1.0000 -0.0000
vn -0.3827 -0.0000 -0.9239
vn -0.0000 -1.0000 -0.0000
vn 0.1721 0.9825 0.0713
vn 0.1863 0.9825 -0.0000
vn -0.1721 0.9825 -0.0713
vn -0.1863 0.9825 -0.0000
vn 0.1317 0.9825 0.1317
vn -0.1317 0.9825 -0.1317
vn 0.0713 0.9825 0.1721
vn -0.0713 0.9825 -0.1721
vn -0.0000 0.9825 0.1863
vn 0.0713 0.9825 -0.1721
vn -0.0000 0.9825 -0.1863
vn -0.0713 0.9825 0.1721
vn 0.1317 0.9825 -0.1317
vn -0.1317 0.9825 0.1317
vn 0.1721 0.9825 -0.0713
vn -0.1721 0.9825 0.0713
vn -0.3279 0.9447 -0.0000
vn -0.3029 0.9447 0.1255
vn 0.3279 0.9447 -0.0000
vn 0.3029 0.9447 -0.1255
vn -0.2318 0.9447 0.2318
vn 0.2318 0.9447 -0.2318
vn -0.1255 0.9447 0.3029
vn 0.1255 0.9447 -0.3029
vn -0.0000 0.9447 0.3279
vn -0.0000 0.9447 -0.3279
vn -0.1255 0.9447 -0.3029
vn 0.1255 0.9447 0.3029
vn -0.2318 0.9447 -0.2318
vn 0.2318 0.9447 0.2318
vn -0.3029 0.9447 -0.1255
vn 0.3029 0.9447 0.1255
vn -0.8431 -0.4090 -0.3492
vn -0.9125 -0.4090 -0.0000
vn 0.8431 -0.4090 0.3492
vn 0.9125 -0.4090 -0.0000
vn -0.6453 -0.4090 -0.6453
vn 0.6453 -0.4090 0.6453
vn -0.3492 -0.4090 -0.8431
vn 0.3492 -0.4090 0.8431
vn -0.0000 -0.4090 -0.9125
vn -0.3492 -0.4090 0.8431
vn -0.0000 -0.4090 0.9125
vn 0.3492 -0.4090 -0.8431
vn -0.6453 -0.4090 0.6453
vn 0.6453 -0.4090 -0.6453
vn -0.8431 -0.4090 0.3492
vn 0.8431 -0.4090 -0.3492
vt 0.930039 0.685088
vt 0.073046 0.685088
vt 0.073046 0.623284
vt 0.930039 0.623284
vt 0.073046 0.561479
vt 0.930039 0.561479
vt 0.073046 0.499675
vt 0.930039 0.499675
vt 0.073046 0.437870
vt 0.930039 0.437870
vt 0.073046 0.376066
vt 0.930039 0.376066
vt 0.073046 0.314261
vt 0.930039 0.314261
vt 0.073046 0.252457
vt 0.930039 0.252457
vt 0.073046 0.190652
vt 0.930039 0.190652
vt 0.073046 0.128848
vt 0.930039 0.128848
vt 0.073046 0.067043
vt 0.930039 0.067043
vt 0.073046 0.005239
vt 0.930039 0.005239
vt 0.930039 0.994110
vt 0.073046 0.994110
vt 0.073046 0.932306
vt 0.930039 0.932306
vt 0.073046 0.870502
vt 0.930039 0.870502
vt 0.073046 0.808697
vt 0.930039 0.808697
vt -0.000255 0.561479
vt -0.000255 0.499675
vt 0.073046 0.746893
vt 0.930039 0.746893
vt 0.984461 0.314261
vt 0.984461 0.376066
vt 0.703996 0.264408
vt 0.696881 0.231369
vt 0.761595 0.224786
vt 0.767224 0.247650
vt -0.000255 0.252457
vt -0.000255 0.190652
vt -0.000255 0.685088
vt -0.000255 0.623284
vt -0.000255 0.932306
vt -0.000255 0.870502
vt -0.000255 0.376066
vt -0.000255 0.314261
vt -0.000255 0.067043
vt -0.000255 0.005239
vt -0.000255 0.746893
vt -0.000255 0.437870
vt -0.000255 0.128848
vt -0.000255 0.808697
vt -0.000255 0.994110
vt 0.849702 0.341737
vt 0.832783 0.334579
vt 0.866427 0.294478
vt 0.878310 0.303982
vt 0.777393 0.028918
vt 0.805778 0.013499
vt 0.826139 0.062532
vt 0.810488 0.075975
vt 0.715631 0.295633
vt 0.773656 0.270280
vt 0.752503 0.050167
vt 0.796237 0.092565
vt 0.731852 0.324294
vt 0.785644 0.290536
vt 0.731896 0.075377
vt 0.782072 0.110092
vt 0.753138 0.350309
vt 0.799958 0.308382
vt 0.704683 0.133170
vt 0.716233 0.103089
vt 0.772096 0.131462
vt 0.764791 0.154012
vt 0.779749 0.372569
vt 0.816189 0.323196
vt 0.697424 0.165009
vt 0.760471 0.177392
vt 0.812130 0.388708
vt 0.694740 0.197970
vt 0.759360 0.201160
vt 0.849789 0.394896
vt 0.836664 0.006247
vt 0.842164 0.053014
vt 0.782177 0.700683
vt 0.775046 0.717898
vt 0.761871 0.731073
vt 0.744656 0.738204
vt 0.726023 0.738204
vt 0.708808 0.731073
vt 0.695633 0.717898
vt 0.688502 0.700683
vt 0.688502 0.682050
vt 0.695633 0.664835
vt 0.708808 0.651659
vt 0.726023 0.644529
vt 0.744656 0.644529
vt 0.761871 0.651659
vt 0.775046 0.664835
vt 0.782177 0.682050
vt 0.819935 0.200626
vt 0.821144 0.216334
vt 0.878310 0.090346
vt 0.865869 0.102392
vt 0.824356 0.231715
vt 0.854534 0.114277
vt 0.829433 0.246472
vt 0.844351 0.126881
vt 0.836346 0.260268
vt 0.835624 0.140263
vt 0.844980 0.272950
vt 0.828697 0.154447
vt 0.823730 0.169403
vt 0.855014 0.284380
vt 0.820796 0.184886
vt 0.680212 0.336704
vt 0.680212 0.288625
vt 0.688199 0.288625
vt 0.688199 0.336704
vt 0.984461 0.005239
vt 0.984461 0.067043
vt 0.984461 0.685088
vt 0.984461 0.746893
vt 0.984461 0.437870
vt 0.984461 0.499675
vt 0.984461 0.128848
vt 0.984461 0.190652
vt 0.984461 0.808697
vt 0.984461 0.870502
vt 0.984461 0.561479
vt 0.984461 0.623284
vt 0.984461 0.252457
vt 0.984461 0.932306
vt 0.984461 0.994110
vt 0.706901 0.454913
vt 0.740898 0.420916
vt 0.785317 0.402517
vt 0.833396 0.402517
vt 0.877815 0.420916
vt 0.911812 0.454913
vt 0.930211 0.499332
vt 0.930211 0.547411
vt 0.911812 0.591830
vt 0.877815 0.625827
vt 0.833396 0.644226
vt 0.785317 0.644226
vt 0.740898 0.625827
vt 0.706901 0.591830
vt 0.688502 0.547411
vt 0.688502 0.499332
vt 0.680212 0.721335
vt 0.680212 0.673256
vt 0.688199 0.673256
vt 0.688199 0.721335
vt 0.680212 0.240546
vt 0.688199 0.240546
vt 0.680212 0.625177
vt 0.688199 0.625177
vt 0.680212 0.192467
vt 0.688199 0.192467
vt 0.680212 0.577098
vt 0.688199 0.577098
vt 0.680212 0.144388
vt 0.688199 0.144388
vt 0.680212 0.529019
vt 0.680212 0.480941
vt 0.688199 0.480941
vt 0.688199 0.529019
vt 0.680212 0.096309
vt 0.688199 0.096309
vt 0.680212 0.432862
vt 0.688199 0.432862
vt 0.680212 0.048230
vt 0.688199 0.048230
vt 0.680212 0.384783
vt 0.688199 0.384783
vt 0.680212 0.000151
vt 0.688199 0.000151
vt 0.680212 0.769414
vt 0.688199 0.769414
vt 0.803620 0.007777
vt 0.836393 0.000151
vt 0.690627 0.232204
vt 0.688502 0.197879
vt 0.849919 0.402214
vt 0.809959 0.395454
vt 0.691341 0.164035
vt 0.776043 0.378177
vt 0.698875 0.131364
vt 0.748530 0.354808
vt 0.710809 0.100497
vt 0.726941 0.071975
vt 0.726722 0.327810
vt 0.748086 0.045891
vt 0.710003 0.298291
vt 0.773895 0.023824
vt 0.697914 0.266188
vt 0.017644 0.374157
vt 0.021707 0.436733
vt 0.017625 0.436748
vt 0.013780 0.374351
vt 0.018883 0.864870
vt 0.017400 0.924244
vt 0.013667 0.923868
vt 0.015188 0.864845
vt 0.014316 0.312851
vt 0.010618 0.312856
vt 0.017401 0.805523
vt 0.013805 0.805480
vt 0.017750 0.251166
vt 0.013752 0.250953
vt 0.020795 0.744943
vt 0.016821 0.744733
vt 0.021122 0.189917
vt 0.017394 0.189935
vt 0.019768 0.623428
vt 0.024108 0.683429
vt 0.020294 0.683428
vt 0.016122 0.623691
vt 0.016278 0.132312
vt 0.012846 0.132671
vt 0.015403 0.561315
vt 0.011332 0.561370
vt 0.009014 0.075022
vt 0.005335 0.075441
vt 0.018113 0.498700
vt 0.014386 0.498522
vt 0.003513 0.019513
vt 0.000151 0.019563
vt 0.007814 0.978765
vt 0.004507 0.978473
s 1
usemtl Cell
f 114/39/19 113/40/20 53/41/16 54/42/16
f 60/58/12 59/59/11 75/60/11 76/61/12
f 116/62/21 115/63/22 61/64/16 62/65/16
f 117/66/23 114/39/19 54/42/16 55/67/16
f 118/68/24 116/62/21 62/65/16 63/69/16
f 119/70/25 117/66/23 55/67/16 56/71/16
f 120/72/26 118/68/24 63/69/16 64/73/16
f 121/74/27 119/70/25 56/71/16 57/75/16
f 123/76/28 122/77/29 50/78/16 49/79/16
f 122/77/29 120/72/26 64/73/16 50/78/16
f 124/80/30 121/74/27 57/75/16 58/81/16
f 125/82/31 123/76/28 49/79/16 51/83/16
f 126/84/32 124/80/30 58/81/16 59/59/16
f 127/85/33 125/82/31 51/83/16 52/86/16
f 128/87/34 126/84/32 59/59/16 60/58/16
f 113/40/20 127/85/33 52/86/16 53/41/16
f 115/63/22 128/88/34 60/89/16 61/64/16
f 65/90/16 66/91/16 80/92/16 79/93/16 78/94/16 77/95/16 76/96/16 75/97/16 74/98/16 73/99/16 72/100/16 71/101/16 70/102/16 69/103/16 68/104/16 67/105/16
f 53/41/5 52/86/4 68/106/4 69/107/5
f 61/64/13 60/89/12 76/108/12 77/109/13
f 54/42/6 53/41/5 69/107/5 70/110/6
f 62/65/14 61/64/13 77/109/13 78/111/14
f 55/67/7 54/42/6 70/110/6 71/112/7
f 63/69/15 62/65/14 78/111/14 79/113/15
f 56/71/8 55/67/7 71/112/7 72/114/8
f 64/73/17 63/69/15 79/113/15 80/115/17
f 57/75/9 56/71/8 72/114/8 73/116/9
f 49/79/2 50/78/1 66/117/1 65/118/2
f 50/78/1 64/73/17 80/115/17 66/117/1
f 58/81/10 57/75/9 73/116/9 74/119/10
f 51/83/3 49/79/2 65/118/2 67/120/3
f 59/59/11 58/81/10 74/119/10 75/60/11
f 52/86/4 51/83/3 67/120/3 68/106/4
f 85/121/5 86/122/6 102/123/6 101/124/5
f 97/140/18 98/141/18 99/142/18 100/143/18 101/144/18 102/145/18 103/146/18 104/147/18 105/148/18 106/149/18 107/150/18 108/151/18 109/152/18 110/153/18 111/154/18 112/155/18
f 93/156/13 94/157/14 110/158/14 109/159/13
f 86/122/6 87/160/7 103/161/7 102/123/6
f 94/157/14 95/162/15 111/163/15 110/158/14
f 87/160/7 88/164/8 104/165/8 103/161/7
f 95/162/15 96/166/17 112/167/17 111/163/15
f 88/164/8 89/168/9 105/169/9 104/165/8
f 81/170/1 82/171/2 98/172/2 97/173/1
f 96/166/17 81/170/1 97/173/1 112/167/17
f 89/168/9 90/174/10 106/175/10 105/169/9
f 82/171/2 83/176/3 99/177/3 98/172/2
f 90/174/10 91/178/11 107/179/11 106/175/10
f 83/176/3 84/180/4 100/181/4 99/177/3
f 91/178/11 92/182/12 108/183/12 107/179/11
f 84/180/4 85/121/5 101/124/5 100/181/4
f 92/184/12 93/156/13 109/159/13 108/185/12
f 143/186/35 141/187/36 128/88/34 115/63/22
f 142/188/37 140/189/38 127/85/33 113/40/20
f 141/190/36 139/191/39 126/84/32 128/87/34
f 140/189/38 138/192/40 125/82/31 127/85/33
f 139/191/39 137/193/41 124/80/30 126/84/32
f 138/192/40 136/194/42 123/76/28 125/82/31
f 137/193/41 135/195/43 121/74/27 124/80/30
f 144/196/44 134/197/45 120/72/26 122/77/29
f 136/194/42 144/196/44 122/77/29 123/76/28
f 135/195/43 133/198/46 119/70/25 121/74/27
f 134/197/45 132/199/47 118/68/24 120/72/26
f 133/198/46 131/200/48 117/66/23 119/70/25
f 132/199/47 130/201/49 116/62/21 118/68/24
f 131/200/48 129/202/50 114/39/19 117/66/23
f 130/201/49 143/186/35 115/63/22 116/62/21
f 129/202/50 142/188/37 113/40/20 114/39/19
f 38/203/51 37/204/52 142/205/52 129/206/51
f 46/207/53 45/208/54 143/209/54 130/210/53
f 39/211/55 38/203/51 129/206/51 131/212/55
f 47/213/56 46/207/53 130/210/53 132/214/56
f 40/215/57 39/211/55 131/212/55 133/216/57
f 48/217/58 47/213/56 132/214/56 134/218/58
f 41/219/59 40/215/57 133/216/57 135/220/59
f 33/221/60 34/222/61 144/223/61 136/224/60
f 34/222/61 48/217/58 134/218/58 144/223/61
f 42/225/62 41/219/59 135/220/59 137/226/62
f 35/227/63 33/221/60 136/224/60 138/228/63
f 43/229/64 42/225/62 137/226/62 139/230/64
f 36/231/65 35/227/63 138/228/63 140/232/65
f 44/233/66 43/229/64 139/230/64 141/234/66
f 37/204/52 36/231/65 140/232/65 142/205/52
f 45/208/54 44/235/66 141/236/66 143/209/54
usemtl Body
f 1/1/1 2/2/1 4/3/2 3/4/2
f 3/4/2 4/3/2 6/5/3 5/6/3
f 5/6/3 6/5/3 8/7/4 7/8/4
f 7/8/4 8/7/4 10/9/5 9/10/5
f 9/10/5 10/9/5 12/11/6 11/12/6
f 11/12/6 12/11/6 14/13/7 13/14/7
f 13/14/7 14/13/7 16/15/8 15/16/8
f 15/16/8 16/15/8 18/17/9 17/18/9
f 17/18/9 18/17/9 20/19/10 19/20/10
f 19/20/10 20/19/10 22/21/11 21/22/11
f 21/22/11 22/21/11 24/23/12 23/24/12
f 23/25/12 24/26/12 26/27/13 25/28/13
f 25/28/13 26/27/13 28/29/14 27/30/14
f 27/30/14 28/29/14 30/31/15 29/32/15
f 8/7/16 6/5/16 35/33/16 36/34/16
f 29/32/15 30/31/15 32/35/17 31/36/17
f 31/36/17 32/35/17 2/2/1 1/1/1
f 11/12/18 13/14/18 87/37/18 86/38/18
f 18/17/16 16/15/16 40/43/16 41/44/16
f 4/3/16 2/2/16 34/45/16 33/46/16
f 28/29/16 26/27/16 45/47/16 46/48/16
f 14/13/16 12/11/16 38/49/16 39/50/16
f 24/23/16 22/21/16 43/51/16 44/52/16
f 2/2/16 32/35/16 48/53/16 34/45/16
f 10/9/16 8/7/16 36/34/16 37/54/16
f 20/19/16 18/17/16 41/44/16 42/55/16
f 30/31/16 28/29/16 46/48/16 47/56/16
f 6/5/16 4/3/16 33/46/16 35/33/16
f 16/15/16 14/13/16 39/50/16 40/43/16
f 26/27/16 24/26/16 44/57/16 45/47/16
f 12/11/16 10/9/16 37/54/16 38/49/16
f 22/21/16 20/19/16 42/55/16 43/51/16
f 32/35/16 30/31/16 47/56/16 48/53/16
f 21/22/18 23/24/18 92/125/18 91/126/18
f 31/36/18 1/1/18 81/127/18 96/128/18
f 7/8/18 9/10/18 85/129/18 84/130/18
f 17/18/18 19/20/18 90/131/18 89/132/18
f 27/30/18 29/32/18 95/133/18 94/134/18
f 3/4/18 5/6/18 83/135/18 82/136/18
f 13/14/18 15/16/18 88/137/18 87/37/18
f 23/25/18 25/28/18 93/138/18 92/139/18
f 9/10/18 11/12/18 86/38/18 85/129/18
f 19/20/18 21/22/18 91/126/18 90/131/18
f 29/32/18 31/36/18 96/128/18 95/133/18
f 5/6/18 7/8/18 84/130/18 83/135/18
f 15/16/18 17/18/18 89/132/18 88/137/18
f 25/28/18 27/30/18 94/134/18 93/138/18
f 1/1/18 3/4/18 82/136/18 81/127/18
